<?xml version="1.0" encoding="iso-8859-1"?>
<!-- Generator: Adobe Illustrator 19.0.0, SVG Export Plug-In . SVG Version: 6.00 Build 0)  -->
<svg version="1.1" id="Capa_1" xmlns="http://www.w3.org/2000/svg" xmlns:xlink="http://www.w3.org/1999/xlink" x="0px" y="0px"
	 viewBox="0 0 510.358 510.358" style="enable-background:new 0 0 510.358 510.358;" xml:space="preserve">
<g>
	<path style="fill:#D5D9DE;" d="M503.692,34.828c-1.367-1.622-3.323-2.635-5.438-2.815L131.589,0.696
		c-4.4-0.401-8.275,2.887-8.652,7.29L84.813,454.361c-0.18,2.114,0.486,4.213,1.854,5.836c1.367,1.622,3.323,2.635,5.437,2.815
		l366.665,31.316c0.231,0.021,0.462,0.029,0.689,0.029c4.11,0,7.605-3.148,7.962-7.319l38.125-446.375
		C505.726,38.55,505.06,36.451,503.692,34.828z"/>
	<path style="fill:#EAECEE;" d="M441.73,451.505L385.848,7.004c-0.552-4.383-4.539-7.495-8.936-6.939L11.786,45.968
		c-2.105,0.265-4.019,1.354-5.32,3.03s-1.884,3.8-1.619,5.905l55.883,444.501c0.508,4.045,3.954,7.003,7.928,7.003
		c0.332,0,0.669-0.021,1.008-0.063l365.126-45.903c2.104-0.265,4.019-1.354,5.32-3.03S441.995,453.61,441.73,451.505z"/>
	<g>
		<path style="fill:#F4F6F7;" d="M436.784,46.358h-368c-4.418,0-8,3.582-8,8v448c0,4.418,3.582,8,8,8h368c4.418,0,8-3.582,8-8v-448
			C444.784,49.94,441.202,46.358,436.784,46.358z"/>
		<g>
			<path style="fill:#55697A;" d="M340.784,230.358h-96v-96c0-4.418-3.582-8-8-8c-61.757,0-112,50.243-112,112s50.243,112,112,112
				s112-50.243,112-112C348.784,233.94,345.202,230.358,340.784,230.358z"/>
			<path style="fill:#FD8E61;" d="M268.784,94.358c-4.418,0-8,3.582-8,8v104c0,4.418,3.582,8,8,8h104c4.418,0,8-3.582,8-8
				C380.784,144.601,330.541,94.358,268.784,94.358z"/>
		</g>
		<path style="fill:#6B7B8B;" d="M324.776,150.359c-1.524,0-3.065-0.436-4.43-1.345c-3.677-2.45-4.67-7.418-2.219-11.094l32-48
			c1.483-2.226,3.981-3.563,6.656-3.563h40c4.418,0,8,3.582,8,8s-3.582,8-8,8h-35.719l-29.625,44.437
			C329.899,149.108,327.362,150.359,324.776,150.359z"/>
		<path style="fill:#95A1AC;" d="M396.784,350.358h-72c-2.759,0-5.322-1.421-6.784-3.76l-40-64
			c-2.342-3.747-1.202-8.683,2.544-11.024c3.748-2.342,8.684-1.2,11.024,2.544l37.649,60.24h67.566c4.418,0,8,3.582,8,8
			S401.202,350.358,396.784,350.358z"/>
		<g>
			<path style="fill:#D5D9DE;" d="M172.784,390.358h-64c-4.418,0-8-3.582-8-8s3.582-8,8-8h64c4.418,0,8,3.582,8,8
				S177.203,390.358,172.784,390.358z"/>
			<path style="fill:#D5D9DE;" d="M268.784,390.358h-64c-4.418,0-8-3.582-8-8s3.582-8,8-8h64c4.418,0,8,3.582,8,8
				S273.202,390.358,268.784,390.358z"/>
			<path style="fill:#D5D9DE;" d="M212.784,430.358h-104c-4.418,0-8-3.582-8-8s3.582-8,8-8h104c4.418,0,8,3.582,8,8
				S217.203,430.358,212.784,430.358z"/>
			<path style="fill:#D5D9DE;" d="M268.784,430.358h-24c-4.418,0-8-3.582-8-8s3.582-8,8-8h24c4.418,0,8,3.582,8,8
				S273.202,430.358,268.784,430.358z"/>
			<path style="fill:#D5D9DE;" d="M140.784,470.358h-32c-4.418,0-8-3.582-8-8s3.582-8,8-8h32c4.418,0,8,3.582,8,8
				S145.203,470.358,140.784,470.358z"/>
			<path style="fill:#D5D9DE;" d="M268.784,470.358h-96c-4.418,0-8-3.582-8-8s3.582-8,8-8h96c4.418,0,8,3.582,8,8
				S273.202,470.358,268.784,470.358z"/>
		</g>
	</g>
</g>
<g>
</g>
<g>
</g>
<g>
</g>
<g>
</g>
<g>
</g>
<g>
</g>
<g>
</g>
<g>
</g>
<g>
</g>
<g>
</g>
<g>
</g>
<g>
</g>
<g>
</g>
<g>
</g>
<g>
</g>
</svg>
