<svg xmlns="http://www.w3.org/2000/svg" width="46.999" height="46.999"><path d="M36.854 37.92H10.147c-1.18 0-2.136.956-2.136 2.136s.956 2.137 2.136 2.137h26.705a2.14 2.14 0 0 0 2.137-2.137c0-1.18-.957-2.136-2.135-2.136zM7.478 21.896v5.34c0 .885.718 1.603 1.602 1.603s1.603-.718 1.603-1.603v-5.34c0-.885-.718-1.602-1.603-1.602s-1.602.718-1.602 1.602zm5.34-2.136v7.477c0 .885.718 1.603 1.603 1.603s1.602-.718 1.602-1.603V19.76c0-.885-.718-1.603-1.602-1.603s-1.603.718-1.603 1.603zm5.342-2.136v9.613c0 .885.718 1.603 1.603 1.603s1.602-.718 1.602-1.603v-9.613c0-.885-.718-1.603-1.602-1.603s-1.603.718-1.603 1.603zM44.863 4.806H2.137A2.14 2.14 0 0 0 0 6.943v26.705a2.14 2.14 0 0 0 2.137 2.137H42.9l-.2-.157-2.957-2.96c-1.705.963-3.636 1.478-5.615 1.478-2.698 0-5.252-.93-7.306-2.633H4.272V9.078h38.455V15.1c1.856 2.095 2.883 4.755 2.883 7.58a11.4 11.4 0 0 1-1.476 5.612L47 31.16V6.942c.001-1.18-.956-2.136-2.136-2.136zM42.37 29.554c-.213-.214-.5-.3-.777-.27l-.45-.45c1.5-1.704 2.328-3.86 2.328-6.15a9.25 9.25 0 0 0-2.73-6.593c-1.76-1.76-4.104-2.733-6.597-2.733a9.25 9.25 0 0 0-6.592 2.733c-1.762 1.763-2.734 4.103-2.734 6.593s.972 4.833 2.734 6.594 4.103 2.73 6.592 2.73c2.293 0 4.45-.827 6.15-2.33l.45.448a.95.95 0 0 0 .27.78l3.213 3.213a.95.95 0 0 0 .677.278.96.96 0 0 0 .677-.278c.372-.374.372-.98 0-1.35l-3.216-3.214zm-2.98-1.632a7.37 7.37 0 0 1-5.244 2.175 7.36 7.36 0 0 1-5.24-2.173 7.37 7.37 0 0 1-2.172-5.242 7.36 7.36 0 0 1 2.172-5.241 7.37 7.37 0 0 1 5.24-2.173 7.36 7.36 0 0 1 5.244 2.173 7.37 7.37 0 0 1 2.17 5.241c0 1.98-.772 3.84-2.17 5.24z"/></svg>